<mxfile host="app.diagrams.net" agent="Mozilla/5.0 (X11; Linux x86_64) AppleWebKit/537.36 (KHTML, like Gecko) Chrome/134.0.0.0 Safari/537.36" version="26.1.0">
  <diagram name="Page-1" id="i40J-m6ngyyWbmbk5Fgd">
    <mxGraphModel dx="2218" dy="760" grid="1" gridSize="10" guides="1" tooltips="1" connect="1" arrows="1" fold="1" page="1" pageScale="1" pageWidth="850" pageHeight="1100" math="0" shadow="0">
      <root>
        <mxCell id="0" />
        <mxCell id="1" parent="0" />
        <mxCell id="6NqD_zVHUFPlOQTDMYd1-1" value="Avião" style="rounded=0;whiteSpace=wrap;html=1;" vertex="1" parent="1">
          <mxGeometry x="360" y="450" width="100" height="50" as="geometry" />
        </mxCell>
        <mxCell id="6NqD_zVHUFPlOQTDMYd1-4" style="rounded=0;orthogonalLoop=1;jettySize=auto;html=1;endArrow=none;startFill=0;" edge="1" parent="1" source="6NqD_zVHUFPlOQTDMYd1-3" target="6NqD_zVHUFPlOQTDMYd1-1">
          <mxGeometry relative="1" as="geometry" />
        </mxCell>
        <mxCell id="6NqD_zVHUFPlOQTDMYd1-3" value="&lt;u&gt;Número&lt;/u&gt;&lt;div&gt;&lt;u&gt;Registo&lt;/u&gt;&lt;/div&gt;" style="ellipse;whiteSpace=wrap;html=1;" vertex="1" parent="1">
          <mxGeometry x="375" y="520" width="70" height="50" as="geometry" />
        </mxCell>
        <mxCell id="6NqD_zVHUFPlOQTDMYd1-6" style="edgeStyle=orthogonalEdgeStyle;rounded=0;orthogonalLoop=1;jettySize=auto;html=1;endArrow=block;endFill=0;" edge="1" parent="1" source="6NqD_zVHUFPlOQTDMYd1-5" target="6NqD_zVHUFPlOQTDMYd1-1">
          <mxGeometry relative="1" as="geometry" />
        </mxCell>
        <mxCell id="6NqD_zVHUFPlOQTDMYd1-13" value="{Mandatório, OU}" style="edgeLabel;html=1;align=center;verticalAlign=middle;resizable=0;points=[];" vertex="1" connectable="0" parent="6NqD_zVHUFPlOQTDMYd1-6">
          <mxGeometry x="-0.35" y="3" relative="1" as="geometry">
            <mxPoint x="17" y="-12" as="offset" />
          </mxGeometry>
        </mxCell>
        <mxCell id="6NqD_zVHUFPlOQTDMYd1-5" value="Modelo Avião" style="rounded=0;whiteSpace=wrap;html=1;" vertex="1" parent="1">
          <mxGeometry x="110" y="450" width="100" height="50" as="geometry" />
        </mxCell>
        <mxCell id="6NqD_zVHUFPlOQTDMYd1-8" style="rounded=0;orthogonalLoop=1;jettySize=auto;html=1;endArrow=none;startFill=0;" edge="1" parent="1" source="6NqD_zVHUFPlOQTDMYd1-7" target="6NqD_zVHUFPlOQTDMYd1-5">
          <mxGeometry relative="1" as="geometry" />
        </mxCell>
        <mxCell id="6NqD_zVHUFPlOQTDMYd1-7" value="&lt;u&gt;Código&lt;/u&gt;&lt;div&gt;&lt;u&gt;Modelo&lt;/u&gt;&lt;/div&gt;" style="ellipse;whiteSpace=wrap;html=1;" vertex="1" parent="1">
          <mxGeometry x="20" y="450" width="70" height="50" as="geometry" />
        </mxCell>
        <mxCell id="6NqD_zVHUFPlOQTDMYd1-12" style="rounded=0;orthogonalLoop=1;jettySize=auto;html=1;endArrow=none;startFill=0;" edge="1" parent="1" source="6NqD_zVHUFPlOQTDMYd1-9" target="6NqD_zVHUFPlOQTDMYd1-5">
          <mxGeometry relative="1" as="geometry" />
        </mxCell>
        <mxCell id="6NqD_zVHUFPlOQTDMYd1-9" value="Capacidade" style="ellipse;whiteSpace=wrap;html=1;" vertex="1" parent="1">
          <mxGeometry x="45" y="510" width="70" height="50" as="geometry" />
        </mxCell>
        <mxCell id="6NqD_zVHUFPlOQTDMYd1-11" style="rounded=0;orthogonalLoop=1;jettySize=auto;html=1;endArrow=none;startFill=0;" edge="1" parent="1" source="6NqD_zVHUFPlOQTDMYd1-10" target="6NqD_zVHUFPlOQTDMYd1-5">
          <mxGeometry relative="1" as="geometry" />
        </mxCell>
        <mxCell id="6NqD_zVHUFPlOQTDMYd1-10" value="Peso" style="ellipse;whiteSpace=wrap;html=1;" vertex="1" parent="1">
          <mxGeometry x="125" y="520" width="70" height="50" as="geometry" />
        </mxCell>
        <mxCell id="6NqD_zVHUFPlOQTDMYd1-14" value="Empregado" style="rounded=0;whiteSpace=wrap;html=1;" vertex="1" parent="1">
          <mxGeometry x="30" y="150" width="100" height="50" as="geometry" />
        </mxCell>
        <mxCell id="6NqD_zVHUFPlOQTDMYd1-17" style="edgeStyle=orthogonalEdgeStyle;rounded=0;orthogonalLoop=1;jettySize=auto;html=1;endArrow=block;endFill=0;" edge="1" parent="1" source="6NqD_zVHUFPlOQTDMYd1-15" target="6NqD_zVHUFPlOQTDMYd1-14">
          <mxGeometry relative="1" as="geometry" />
        </mxCell>
        <mxCell id="6NqD_zVHUFPlOQTDMYd1-46" value="1" style="edgeStyle=orthogonalEdgeStyle;rounded=0;orthogonalLoop=1;jettySize=auto;html=1;endArrow=none;startFill=0;" edge="1" parent="1" source="6NqD_zVHUFPlOQTDMYd1-15" target="6NqD_zVHUFPlOQTDMYd1-45">
          <mxGeometry y="-15" relative="1" as="geometry">
            <mxPoint as="offset" />
          </mxGeometry>
        </mxCell>
        <mxCell id="6NqD_zVHUFPlOQTDMYd1-15" value="Técnico" style="rounded=0;whiteSpace=wrap;html=1;" vertex="1" parent="1">
          <mxGeometry x="110" y="290" width="100" height="50" as="geometry" />
        </mxCell>
        <mxCell id="6NqD_zVHUFPlOQTDMYd1-20" style="edgeStyle=orthogonalEdgeStyle;rounded=0;orthogonalLoop=1;jettySize=auto;html=1;endArrow=block;endFill=0;" edge="1" parent="1" source="6NqD_zVHUFPlOQTDMYd1-16" target="6NqD_zVHUFPlOQTDMYd1-14">
          <mxGeometry relative="1" as="geometry" />
        </mxCell>
        <mxCell id="6NqD_zVHUFPlOQTDMYd1-29" value="{Mandatório, OU}" style="edgeLabel;html=1;align=center;verticalAlign=middle;resizable=0;points=[];rotation=0;" vertex="1" connectable="0" parent="6NqD_zVHUFPlOQTDMYd1-20">
          <mxGeometry x="-0.2" y="1" relative="1" as="geometry">
            <mxPoint x="56" y="11" as="offset" />
          </mxGeometry>
        </mxCell>
        <mxCell id="6NqD_zVHUFPlOQTDMYd1-16" value="Controlador" style="rounded=0;whiteSpace=wrap;html=1;" vertex="1" parent="1">
          <mxGeometry x="-50" y="290" width="100" height="50" as="geometry" />
        </mxCell>
        <mxCell id="6NqD_zVHUFPlOQTDMYd1-25" style="rounded=0;orthogonalLoop=1;jettySize=auto;html=1;endArrow=none;startFill=0;" edge="1" parent="1" source="6NqD_zVHUFPlOQTDMYd1-21" target="6NqD_zVHUFPlOQTDMYd1-14">
          <mxGeometry relative="1" as="geometry" />
        </mxCell>
        <mxCell id="6NqD_zVHUFPlOQTDMYd1-21" value="&lt;u&gt;BI&lt;/u&gt;" style="ellipse;whiteSpace=wrap;html=1;" vertex="1" parent="1">
          <mxGeometry x="-50" y="100" width="70" height="50" as="geometry" />
        </mxCell>
        <mxCell id="6NqD_zVHUFPlOQTDMYd1-26" style="rounded=0;orthogonalLoop=1;jettySize=auto;html=1;endArrow=none;startFill=0;shape=link;" edge="1" parent="1" source="6NqD_zVHUFPlOQTDMYd1-22" target="6NqD_zVHUFPlOQTDMYd1-14">
          <mxGeometry relative="1" as="geometry" />
        </mxCell>
        <mxCell id="6NqD_zVHUFPlOQTDMYd1-22" value="Telefone" style="ellipse;whiteSpace=wrap;html=1;" vertex="1" parent="1">
          <mxGeometry x="10" y="70" width="70" height="50" as="geometry" />
        </mxCell>
        <mxCell id="6NqD_zVHUFPlOQTDMYd1-28" style="rounded=0;orthogonalLoop=1;jettySize=auto;html=1;endArrow=none;startFill=0;" edge="1" parent="1" source="6NqD_zVHUFPlOQTDMYd1-23" target="6NqD_zVHUFPlOQTDMYd1-14">
          <mxGeometry relative="1" as="geometry" />
        </mxCell>
        <mxCell id="6NqD_zVHUFPlOQTDMYd1-23" value="Salário" style="ellipse;whiteSpace=wrap;html=1;" vertex="1" parent="1">
          <mxGeometry x="140" y="100" width="70" height="50" as="geometry" />
        </mxCell>
        <mxCell id="6NqD_zVHUFPlOQTDMYd1-27" style="rounded=0;orthogonalLoop=1;jettySize=auto;html=1;endArrow=none;startFill=0;" edge="1" parent="1" source="6NqD_zVHUFPlOQTDMYd1-24" target="6NqD_zVHUFPlOQTDMYd1-14">
          <mxGeometry relative="1" as="geometry" />
        </mxCell>
        <mxCell id="6NqD_zVHUFPlOQTDMYd1-24" value="Endereço" style="ellipse;whiteSpace=wrap;html=1;" vertex="1" parent="1">
          <mxGeometry x="80" y="70" width="70" height="50" as="geometry" />
        </mxCell>
        <mxCell id="6NqD_zVHUFPlOQTDMYd1-36" style="rounded=0;orthogonalLoop=1;jettySize=auto;html=1;endArrow=none;startFill=0;" edge="1" parent="1" source="6NqD_zVHUFPlOQTDMYd1-30" target="6NqD_zVHUFPlOQTDMYd1-15">
          <mxGeometry relative="1" as="geometry" />
        </mxCell>
        <mxCell id="6NqD_zVHUFPlOQTDMYd1-30" value="Nível Qualificação" style="ellipse;whiteSpace=wrap;html=1;" vertex="1" parent="1">
          <mxGeometry x="160" y="190" width="70" height="50" as="geometry" />
        </mxCell>
        <mxCell id="6NqD_zVHUFPlOQTDMYd1-34" style="rounded=0;orthogonalLoop=1;jettySize=auto;html=1;endArrow=none;startFill=0;" edge="1" parent="1" source="6NqD_zVHUFPlOQTDMYd1-32" target="6NqD_zVHUFPlOQTDMYd1-16">
          <mxGeometry relative="1" as="geometry" />
        </mxCell>
        <mxCell id="6NqD_zVHUFPlOQTDMYd1-32" value="&lt;u&gt;Nr&lt;/u&gt;" style="ellipse;whiteSpace=wrap;html=1;" vertex="1" parent="1">
          <mxGeometry x="-120" y="230" width="70" height="50" as="geometry" />
        </mxCell>
        <mxCell id="6NqD_zVHUFPlOQTDMYd1-35" style="rounded=0;orthogonalLoop=1;jettySize=auto;html=1;endArrow=none;startFill=0;" edge="1" parent="1" source="6NqD_zVHUFPlOQTDMYd1-33" target="6NqD_zVHUFPlOQTDMYd1-15">
          <mxGeometry relative="1" as="geometry" />
        </mxCell>
        <mxCell id="6NqD_zVHUFPlOQTDMYd1-33" value="&lt;u&gt;Nr&lt;/u&gt;" style="ellipse;whiteSpace=wrap;html=1;" vertex="1" parent="1">
          <mxGeometry x="210" y="230" width="70" height="50" as="geometry" />
        </mxCell>
        <mxCell id="6NqD_zVHUFPlOQTDMYd1-39" style="edgeStyle=orthogonalEdgeStyle;rounded=0;orthogonalLoop=1;jettySize=auto;html=1;entryX=0.5;entryY=1;entryDx=0;entryDy=0;endArrow=none;startFill=0;" edge="1" parent="1" source="6NqD_zVHUFPlOQTDMYd1-37" target="6NqD_zVHUFPlOQTDMYd1-15">
          <mxGeometry relative="1" as="geometry" />
        </mxCell>
        <mxCell id="6NqD_zVHUFPlOQTDMYd1-40" value="N" style="edgeLabel;html=1;align=center;verticalAlign=middle;resizable=0;points=[];" vertex="1" connectable="0" parent="6NqD_zVHUFPlOQTDMYd1-39">
          <mxGeometry x="0.219" y="5" relative="1" as="geometry">
            <mxPoint x="-5" y="-6" as="offset" />
          </mxGeometry>
        </mxCell>
        <mxCell id="6NqD_zVHUFPlOQTDMYd1-42" style="rounded=0;orthogonalLoop=1;jettySize=auto;html=1;endArrow=none;startFill=0;" edge="1" parent="1" source="6NqD_zVHUFPlOQTDMYd1-37" target="6NqD_zVHUFPlOQTDMYd1-5">
          <mxGeometry relative="1" as="geometry" />
        </mxCell>
        <mxCell id="6NqD_zVHUFPlOQTDMYd1-43" value="N" style="edgeLabel;html=1;align=center;verticalAlign=middle;resizable=0;points=[];" vertex="1" connectable="0" parent="6NqD_zVHUFPlOQTDMYd1-42">
          <mxGeometry x="-0.2" relative="1" as="geometry">
            <mxPoint x="-10" as="offset" />
          </mxGeometry>
        </mxCell>
        <mxCell id="6NqD_zVHUFPlOQTDMYd1-37" value="Perito em" style="rhombus;whiteSpace=wrap;html=1;" vertex="1" parent="1">
          <mxGeometry x="125" y="370" width="70" height="50" as="geometry" />
        </mxCell>
        <mxCell id="6NqD_zVHUFPlOQTDMYd1-54" value="1" style="rounded=0;orthogonalLoop=1;jettySize=auto;html=1;endArrow=none;startFill=0;shape=link;" edge="1" parent="1" source="6NqD_zVHUFPlOQTDMYd1-44" target="6NqD_zVHUFPlOQTDMYd1-53">
          <mxGeometry x="0.3333" y="10" relative="1" as="geometry">
            <mxPoint as="offset" />
          </mxGeometry>
        </mxCell>
        <mxCell id="6NqD_zVHUFPlOQTDMYd1-44" value="Teste" style="rounded=0;whiteSpace=wrap;html=1;" vertex="1" parent="1">
          <mxGeometry x="360" y="290" width="100" height="50" as="geometry" />
        </mxCell>
        <mxCell id="6NqD_zVHUFPlOQTDMYd1-47" style="edgeStyle=orthogonalEdgeStyle;rounded=0;orthogonalLoop=1;jettySize=auto;html=1;endArrow=none;startFill=0;shape=link;" edge="1" parent="1" source="6NqD_zVHUFPlOQTDMYd1-45" target="6NqD_zVHUFPlOQTDMYd1-44">
          <mxGeometry relative="1" as="geometry" />
        </mxCell>
        <mxCell id="6NqD_zVHUFPlOQTDMYd1-48" value="N" style="edgeLabel;html=1;align=center;verticalAlign=middle;resizable=0;points=[];" vertex="1" connectable="0" parent="6NqD_zVHUFPlOQTDMYd1-47">
          <mxGeometry x="0.1" y="3" relative="1" as="geometry">
            <mxPoint y="18" as="offset" />
          </mxGeometry>
        </mxCell>
        <mxCell id="6NqD_zVHUFPlOQTDMYd1-45" value="Faz" style="rhombus;whiteSpace=wrap;html=1;" vertex="1" parent="1">
          <mxGeometry x="250" y="290" width="70" height="50" as="geometry" />
        </mxCell>
        <mxCell id="6NqD_zVHUFPlOQTDMYd1-52" style="rounded=0;orthogonalLoop=1;jettySize=auto;html=1;endArrow=none;startFill=0;" edge="1" parent="1" source="6NqD_zVHUFPlOQTDMYd1-49" target="6NqD_zVHUFPlOQTDMYd1-44">
          <mxGeometry relative="1" as="geometry" />
        </mxCell>
        <mxCell id="6NqD_zVHUFPlOQTDMYd1-49" value="&lt;u&gt;Nr&lt;/u&gt;" style="ellipse;whiteSpace=wrap;html=1;" vertex="1" parent="1">
          <mxGeometry x="340" y="220" width="70" height="50" as="geometry" />
        </mxCell>
        <mxCell id="6NqD_zVHUFPlOQTDMYd1-51" style="rounded=0;orthogonalLoop=1;jettySize=auto;html=1;endArrow=none;startFill=0;" edge="1" parent="1" source="6NqD_zVHUFPlOQTDMYd1-50" target="6NqD_zVHUFPlOQTDMYd1-44">
          <mxGeometry relative="1" as="geometry" />
        </mxCell>
        <mxCell id="6NqD_zVHUFPlOQTDMYd1-50" value="Pontuação" style="ellipse;whiteSpace=wrap;html=1;" vertex="1" parent="1">
          <mxGeometry x="420" y="220" width="70" height="50" as="geometry" />
        </mxCell>
        <mxCell id="6NqD_zVHUFPlOQTDMYd1-55" value="1" style="rounded=0;orthogonalLoop=1;jettySize=auto;html=1;endArrow=none;startFill=0;" edge="1" parent="1" source="6NqD_zVHUFPlOQTDMYd1-53" target="6NqD_zVHUFPlOQTDMYd1-1">
          <mxGeometry x="-0.3333" y="10" relative="1" as="geometry">
            <mxPoint as="offset" />
          </mxGeometry>
        </mxCell>
        <mxCell id="6NqD_zVHUFPlOQTDMYd1-53" value="Verifica" style="rhombus;whiteSpace=wrap;html=1;" vertex="1" parent="1">
          <mxGeometry x="375" y="370" width="70" height="50" as="geometry" />
        </mxCell>
      </root>
    </mxGraphModel>
  </diagram>
</mxfile>
